<svg xmlns="http://www.w3.org/2000/svg" viewBox="0 0 980 390" role="img" aria-label="Modern large vehicle">
  <defs>
    <linearGradient id="b" x1="0" y1="0" x2="1" y2="1"><stop offset="0" stop-color="#f4fdff"/><stop offset=".42" stop-color="#b6dfe5"/><stop offset="1" stop-color="#426f7f"/></linearGradient>
    <linearGradient id="g" x1="0" y1="0" x2="1" y2="1"><stop offset="0" stop-color="#173b4d"/><stop offset="1" stop-color="#071820"/></linearGradient>
    <linearGradient id="a"><stop offset="0" stop-color="#18cfb7"/><stop offset="1" stop-color="#007d72"/></linearGradient>
    <filter id="s" x="-20%" y="-20%" width="140%" height="160%"><feGaussianBlur stdDeviation="14"/></filter>
  </defs>
  <ellipse cx="492" cy="327" rx="369" ry="33" fill="#00131b" opacity=".33" filter="url(#s)"/>
  <path d="M117 279 145 167c9-38 38-67 78-72l135-15 55-44c20-16 44-24 70-24h185c55 0 94 20 127 62l69 89c39 11 67 38 76 77l9 39H117Z" fill="url(#b)" stroke="#dbf7fa" stroke-width="5"/>
  <path d="M405 76 455 37c13-10 28-15 45-15h164c36 0 64 13 88 41l61 75H375l30-62Z" fill="url(#g)"/>
  <path d="M552 25v113M376 142h440" stroke="#9ed1d7" stroke-width="5" opacity=".55"/>
  <path d="M144 242c174 20 373 18 594 1 64-5 116-13 157-24" fill="none" stroke="#fff" stroke-width="8" opacity=".34"/>
  <path d="M192 189h108M791 194h73" stroke="url(#a)" stroke-width="13" stroke-linecap="round"/>
  <path d="M115 281h810" stroke="#092a34" stroke-width="20" opacity=".64"/>
  <g>
    <circle cx="278" cy="293" r="74" fill="#071820" stroke="#2d4a54" stroke-width="10"/><circle cx="278" cy="293" r="39" fill="#a1bbc1"/><circle cx="278" cy="293" r="17" fill="#263d46"/>
    <circle cx="755" cy="293" r="74" fill="#071820" stroke="#2d4a54" stroke-width="10"/><circle cx="755" cy="293" r="39" fill="#a1bbc1"/><circle cx="755" cy="293" r="17" fill="#263d46"/>
  </g>
  <path d="M122 251c13-28 31-47 55-56h66l-20 51-101 5Zm798-2c-10-28-28-49-53-62h-62l19 49 96 13Z" fill="#dcffff"/>
  <path d="M455 180h62M604 180h62" stroke="#244d59" stroke-width="8" stroke-linecap="round"/>
  <path d="M165 300h78M803 300h91" stroke="#14bba8" stroke-width="7" stroke-linecap="round"/>
</svg>
